<?xml version="1.0" encoding="UTF-8"?>
<svg xmlns="http://www.w3.org/2000/svg" viewBox="197.8875920427369 115 154.22481591452612 140.41850437573783" role="img" aria-label="TecConfi logo" preserveAspectRatio="xMidYMid meet">
  <g fill-rule="evenodd">
    <path d="M219.06466,115.27508c-0.613,0.123 -1.449,0.404 -1.85801,0.626c-1.566,0.849 -1.645,1.587 -1.645,15.38905c0.001,14.12804 0.01,14.20104 2.01301,15.67105c0.874,0.642 1.343,0.664 17.19705,0.819c15.85705,0.155 16.33805,0.178 17.78605,0.848c1.99601,0.921 4.09501,2.91001 5.05202,4.78301l0.784,1.534l0.159,21.01806c0.13,17.06305 0.242,21.16806 0.599,21.81407c0.953,1.72301 2.64501,3.47601 3.98101,4.12201c1.362,0.659 1.72701,0.676 12.55304,0.587l11.15103,-0.091l1.224,-0.986c0.673,-0.542 1.65301,-1.593 2.17801,-2.33601l0.956,-1.35l0.318,-43.09613l0.719,-1.345c0.97,-1.81501 2.62201,-3.41101 4.62601,-4.46701l1.66101,-0.876l16.40105,-0.159c17.61405,-0.171 17.20105,-0.129 18.44806,-1.87901c0.642,-0.902 0.659,-1.283 0.659,-14.60704c0,-13.55204 -0.006,-13.68904 -0.69,-14.55904c-0.153,-0.194 -0.252,-0.366 -0.375,-0.52c-0.993,-1.242 -3.54201,-1.24 -48.48915,-1.206c-2.86201,0.002 -5.89502,0.005 -9.11103,0.007c-30.35009,0.02 -55.68417,0.137 -56.29717,0.259z" fill="#ed8b00"/>
    <path d="M324.13897,157.76821c-4.28201,0.922 -8.00502,3.87401 -10.01503,7.94102c-4.57701,9.26103 2.70401,20.60406 13.22504,20.60406c7.73402,0 14.33404,-6.74702 14.31704,-14.63604c-0.014,-6.72802 -5.15202,-12.76304 -11.91704,-13.99804c-2.30201,-0.42 -3.32001,-0.405 -5.61002,0.089z" fill="#0082ba"/>
    <path d="M247.72574,161.04822c-0.438,0.068 -2.84901,0.411 -5.35702,0.762c-22.52207,3.14601 -38.50312,10.62403 -43.25713,20.24106c-1.197,2.42101 -1.224,2.55501 -1.224,5.99702c0,3.32201 0.059,3.64401 1.052,5.74202c0.578,1.222 1.65301,3.00101 2.38801,3.95401c2.89301,3.75001 9.10303,7.80102 16.36805,10.67703c3.22301,1.275 4.01901,1.271 5.24002,-0.027c0.645,-0.687 0.759,-1.172 0.841,-3.55601c0.126,-3.64501 -0.33,-4.43001 -3.16001,-5.44502c-4.15601,-1.491 -8.25303,-3.88401 -10.67403,-6.23302c-2.54201,-2.46801 -3.16601,-3.84901 -2.68801,-5.94702c0.829,-3.62901 6.38402,-7.65102 15.02905,-10.88003c7.54302,-2.81701 14.47804,-4.35401 27.64308,-6.12602c0.95,-0.128 1.69801,-0.482 2.30901,-1.094c0.786,-0.786 0.903,-1.144 0.902,-2.75801c-0.005,-4.58901 -1.38,-5.93802 -5.41202,-5.30702z" fill="#0082ba"/>
    <path d="M297.43189,161.91222c-0.641,0.691 -0.792,1.24 -0.906,3.30001c-0.152,2.75101 0.176,3.96101 1.263,4.66001c0.401,0.258 2.35301,0.706 4.33501,0.994c3.28001,0.477 3.67301,0.479 4.36701,0.024c1.165,-0.763 1.383,-1.428 1.486,-4.55301c0.141,-4.22301 -0.438,-4.66601 -6.58602,-5.05402c-3.14401,-0.198 -3.20101,-0.189 -3.95901,0.629z" fill="#0082ba"/>
    <path d="M345.06204,181.53428c-1.95601,2.93801 -2.11801,3.31301 -2.11801,4.89701c0,0.943 -0.203,2.19801 -0.45,2.78901c-2.88601,6.90002 -17.50905,13.40904 -37.78811,16.82205c-9.27303,1.56 -15.17805,2.00601 -27.92308,2.10901c-6.35002,0.052 -11.83304,0.185 -12.18404,0.296c-1.08,0.343 -1.587,1.81101 -1.587,4.59601c0,2.37701 0.065,2.63101 0.93,3.59801l0.93,1.04l11.09203,-0.006c11.54203,-0.006 15.31205,-0.244 25.30508,-1.602c21.55307,-2.92801 37.70811,-8.93603 45.80914,-17.03805c4.70601,-4.70601 6.27202,-10.84503 4.02001,-15.76305c-0.994,-2.17101 -2.95801,-4.92001 -3.51501,-4.92001c-0.221,0 -1.356,1.431 -2.52101,3.18201z" fill="#0082ba"/>
    <path d="M238.80172,196.88933c-4.25301,1.493 -6.89702,3.91501 -8.79303,8.05702c-1.042,2.27701 -1.366,5.96602 -0.763,8.70903c1.519,6.92002 8.53603,12.15804 15.23905,11.37703c7.52002,-0.875 13.11304,-7.13502 13.11304,-14.67604c0,-6.00802 -3.51201,-11.04603 -9.24303,-13.25804c-2.71001,-1.046 -6.90602,-1.138 -9.55303,-0.209z" fill="#0082ba"/>
    <path d="M259.57078,225.30241c0.56,-0.638 1.312,-1.278 1.67201,-1.424c0.359,-0.146 6.60402,-0.275 13.87604,-0.286l13.22104,-0.02l1.141,0.776c0.628,0.427 1.311,1.184 1.518,1.68301c0.273,0.66 0.352,4.42801 0.286,13.79404c-0.086,12.31504 -0.119,12.92404 -0.727,13.73504c-0.268,0.357 -0.474,0.646 -0.73,0.878c-1.078,0.98 -3.04701,0.98 -14.25804,0.98h-0.861c-13.23104,0 -13.54104,-0.015 -14.36804,-0.665c-0.316,-0.249 -0.576,-0.453 -0.79,-0.697c-0.998,-1.138 -0.998,-3.15201 -0.998,-14.63104v-12.96404z" fill="#0082ba"/>
  </g>
</svg>
